<svg width="101" height="75" viewBox="0 0 101 75" fill="none" xmlns="http://www.w3.org/2000/svg">
<path fill-rule="evenodd" clip-rule="evenodd" d="M72.8605 48.0798C74.4922 46.4479 73.3363 43.6577 71.0287 43.6577L33.985 43.6577C32.5543 43.6577 31.3945 42.4979 31.3945 41.0672L31.3945 33.296C31.3945 31.8653 32.5543 30.7056 33.9849 30.7056L71.0287 30.7056C73.3363 30.7056 74.4922 27.9153 72.8605 26.2835L56.4939 9.91735C55.4825 8.90544 55.4825 7.26556 56.4939 6.25366L61.9889 0.758628C63.0008 -0.252763 64.6407 -0.252763 65.6526 0.758627L100.244 35.3499C101.255 36.3615 101.255 38.0017 100.244 39.0133L65.6526 73.6046C64.6407 74.6162 63.0008 74.6162 61.9889 73.6046L56.4939 68.1095C55.4825 67.0978 55.4825 65.4577 56.4939 64.446L72.8605 48.0798Z" fill="white"/>
<path d="M2.59042 41.7589L25.4691 41.7589C26.8997 41.7589 28.0595 42.9186 28.0595 44.3493L28.0595 52.1205C28.0595 53.5512 26.8997 54.7109 25.4691 54.7109L2.59042 54.7109C1.15978 54.7109 4.00429e-06 53.5512 3.81667e-06 52.1205L2.7976e-06 44.3493C2.60998e-06 42.9186 1.15977 41.7589 2.59042 41.7589Z" fill="white"/>
</svg>
