<svg width="22" height="22" viewBox="0 0 22 22" fill="none" xmlns="http://www.w3.org/2000/svg">
<path d="M18.4652 1.48242H3.51134C1.94785 1.48242 0.675781 2.75424 0.675781 4.31798V13.4694C0.675781 15.0297 1.94231 16.2995 3.50127 16.305V20.4578L9.46935 16.305H18.4652C20.0287 16.305 21.3008 15.0329 21.3008 13.4694V4.31798C21.3008 2.75424 20.0287 1.48242 18.4652 1.48242ZM20.0923 13.4694C20.0923 14.3665 19.3624 15.0965 18.4652 15.0965H9.09019L4.70977 18.1447V15.0965H3.51134C2.61416 15.0965 1.88428 14.3665 1.88428 13.4694V4.31798C1.88428 3.42067 2.61416 2.69092 3.51134 2.69092H18.4652C19.3624 2.69092 20.0923 3.42067 20.0923 4.31798V13.4694Z" fill="#505050"/>
<path d="M6.19531 5.75293H15.7799V6.96143H6.19531V5.75293Z" fill="#505050"/>
<path d="M6.19531 8.33105H15.7799V9.53955H6.19531V8.33105Z" fill="#505050"/>
<path d="M6.19531 10.9092H15.7799V12.1177H6.19531V10.9092Z" fill="#505050"/>
</svg>
