<svg width="107" height="89" viewBox="0 0 107 89" fill="none" xmlns="http://www.w3.org/2000/svg">
<path d="M43.75 0H5.46875C2.45328 0 0 2.45328 0 5.46875V41.0156C0 44.0311 2.45328 46.4844 5.46875 46.4844H28.1271C25.5645 59.0606 14.33 68.3594 1.36719 68.3594C0.612227 68.3594 0 68.9713 0 69.7266V87.5C0 88.2552 0.612227 88.8672 1.36719 88.8672C27.7525 88.8672 49.2188 67.401 49.2188 41.0156V5.46875C49.2188 2.45328 46.7655 0 43.75 0ZM46.4844 41.0156C46.4844 65.4363 26.9825 85.3874 2.73438 86.1126V71.0629C9.52109 70.7541 16.0092 68.1554 21.1348 63.6658C26.5467 58.9258 30.0871 52.4073 31.1046 45.3113C31.1609 44.9187 31.0442 44.5211 30.7844 44.2217C30.5246 43.922 30.1476 43.75 29.7514 43.75H5.46875C3.96102 43.75 2.73438 42.5234 2.73438 41.0156V5.46875C2.73438 3.96102 3.96102 2.73438 5.46875 2.73438H43.75C45.2577 2.73438 46.4844 3.96102 46.4844 5.46875V41.0156ZM101.172 0H62.8906C59.8752 0 57.4219 2.45328 57.4219 5.46875V41.0156C57.4219 44.0311 59.8752 46.4844 62.8906 46.4844H85.5501C82.9875 59.0606 71.7527 68.3594 58.7891 68.3594C58.0338 68.3594 57.4219 68.9713 57.4219 69.7266V87.5C57.4219 88.2552 58.0338 88.8672 58.7891 88.8672C85.1744 88.8672 106.641 67.401 106.641 41.0156V5.46875C106.641 2.45328 104.188 0 101.172 0ZM103.906 41.0156C103.906 65.4363 84.4044 85.3874 60.1562 86.1126V71.0629C66.943 70.7544 73.4314 68.1554 78.5572 63.6658C83.9694 58.9258 87.5101 52.4073 88.5276 45.3113C88.5839 44.9187 88.4669 44.5211 88.2074 44.2217C87.9476 43.922 87.5708 43.75 87.1743 43.75H62.8906C61.3829 43.75 60.1562 42.5234 60.1562 41.0156V5.46875C60.1562 3.96102 61.3829 2.73438 62.8906 2.73438H101.172C102.68 2.73438 103.906 3.96102 103.906 5.46875V41.0156Z" fill="#171717"/>
</svg>
