<svg width="66" height="66" viewBox="0 0 66 66" fill="none" xmlns="http://www.w3.org/2000/svg">
<path fill-rule="evenodd" clip-rule="evenodd" d="M43.6049 54.2972C40.4026 59.6346 36.53 62.04 33 62.04C29.4699 62.04 25.5974 59.6346 22.395 54.2972C19.2398 49.0387 17.16 41.5183 17.16 33C17.16 24.4816 19.2398 16.9614 22.395 11.7029C25.5974 6.36553 29.4699 3.96 33 3.96C36.53 3.96 40.4026 6.36553 43.6049 11.7029C46.76 16.9614 48.84 24.4816 48.84 33C48.84 41.5183 46.76 49.0387 43.6049 54.2972ZM66 33C66 14.7746 51.2252 0 33 0C14.7746 0 0 14.7746 0 33C0 51.2252 14.7746 66 33 66C51.2252 66 66 51.2252 66 33ZM3.96 33C3.96 44.8569 11.0658 55.0539 21.2511 59.565C16.3674 53.5554 13.2 43.8943 13.2 33C13.2 22.1058 16.3674 12.4446 21.2511 6.43484C11.0658 10.9461 3.96 21.1432 3.96 33ZM62.04 33C62.04 44.8569 54.9341 55.0539 44.749 59.565C49.6327 53.5554 52.8 43.8943 52.8 33C52.8 22.1058 49.6327 12.4446 44.749 6.43484C54.9341 10.9461 62.04 21.1432 62.04 33ZM33 36.63C35.0048 36.63 36.63 35.0048 36.63 33C36.63 30.9952 35.0048 29.37 33 29.37C30.9952 29.37 29.37 30.9952 29.37 33C29.37 35.0048 30.9952 36.63 33 36.63Z" fill="white"/>
</svg>
