<svg width="50" height="42" viewBox="0 0 50 42" fill="none" xmlns="http://www.w3.org/2000/svg">
<path d="M49.5073 23.3062C45.7299 37.4205 30.7112 45.5141 16.6877 40.5165C4.97016 36.3492 -2.00683 23.9061 0.513231 11.7148C0.754001 10.5417 1.07503 9.41153 1.46026 8.32416C2.21468 6.20301 5.14137 6.13337 6.0028 8.21168C9.0151 15.459 15.2323 21.2654 23.3918 23.4562C31.5512 25.647 39.8498 23.724 46.0724 18.9514C47.8541 17.5855 50.3634 19.1014 49.9568 21.3082C49.8337 21.9778 49.6839 22.642 49.5073 23.3062Z" fill="#171717"/>
<path d="M21.8905 9.94996C24.1638 7.67407 24.1638 3.98413 21.8905 1.70824C19.6171 -0.567642 15.9313 -0.567643 13.658 1.70824C11.3847 3.98413 11.3847 7.67407 13.658 9.94996C15.9313 12.2258 19.6171 12.2258 21.8905 9.94996Z" fill="#171717"/>
<path d="M41.1832 15.1248C43.4565 12.8489 43.4565 9.15894 41.1832 6.88305C38.9098 4.60716 35.224 4.60716 32.9507 6.88305C30.6774 9.15894 30.6774 12.8489 32.9507 15.1248C35.224 17.4007 38.9098 17.4007 41.1832 15.1248Z" fill="#171717"/>
</svg>
